{"title":"Carl.2012.VODRip.XviD-XTREME","uid":7358136,"size":732227217,"categoryP":"video","categoryS":"movies","magnet":"?xt=urn:btih:8f5875013bc62f95afb17417c65714eb76fc65ff&amp;dn=+Carl.2012.VODRip.XviD-XTREME&amp;tr=udp%3A%2F%2Ftracker.openbittorrent.com%3A80&amp;tr=udp%3A%2F%2Fopen.demonii.com%3A1337&amp;tr=udp%3A%2F%2Ftracker.coppersurfer.tk%3A6969&amp;tr=udp%3A%2F%2Fexodus.desync.com%3A6969","seeders":0,"leechers":1,"uploader":"tykoon123","files":2,"time":1339806370,"description":"poster: &lt;a href=&quot;\nhttp://www.dl4up.com/wp-content/uploads/2012/06/Carl-2012.jpg&quot; rel=&quot;nofollow&quot; target=&quot;_NEW&quot;&gt;\nhttp://www.dl4up.com/wp-content/uploads/2012/06/Carl-2012.jpg&lt;/a&gt;\n\nINFO\nComplete name: Carl.2012.VODRip.XviD-XTREME.avi\nFormat: AVI\nFormat/Info: Audio Video Interleave\nFile size: 698 MiB\nDuration: 1h 30mn\nOverall bit rate: 1 076 Kbps\n\n\n &lt;a href=&quot;\nhttp://www.imdb.com/title/tt2241069/&quot; rel=&quot;nofollow&quot; target=&quot;_NEW&quot;&gt;\nhttp://www.imdb.com/title/tt2241069/&lt;/a&gt;\n\nSOURCE : VODRIP.HS...thanks \n\nVideo\nID: 0\nFormat: MPEG-4 Visual\nFormat profile: Advanced Simple@L5\nFormat settings, BVOP: 2\nFormat settings, QPel: No\nFormat settings, GMC: No warppoints\nFormat settings, Matrix: Default (H.263)\nCodec ID: XVID\nCodec ID/Hint: XviD\nDuration: 1h 30mn\nBit rate: 685 Kbps\nWidth: 640 pixels\nHeight: 360 pixels\nDisplay aspect ratio: 16:9\nFrame rate: 24.000 fps\nColor space: YUV\nChroma subsampling: 4:2:0\nBit depth: 8 bits\nScan type: Progressive\nCompression mode: Lossy\nBits/(Pixel*Frame): 0.124\nStream size: 444 MiB (64%)\nWriting library: XviD 1.2.1 (UTC 2008-12-04)\n\n\n\nAudio\nID: 1\nFormat: AC-3\nFormat/Info: Audio Coding 3\nMode extension: CM (complete main)\nFormat settings, Endianness: Big\nCodec ID: 2000\nDuration: 1h 30mn\nBit rate mode: Constant\nBit rate: 384 Kbps\nChannel(s): 2 channels\nChannel positions: Front: L R\nSampling rate: 44.1 KHz\nBit depth: 16 bits\nCompression mode: Lossy\nStream size: 249 MiB (36%)\nAlignment: Aligned on interleaves\nInterleave, duration: 70 ms (1.67 video frames)\nInterleave, preload duration: 208 ms\n\n\nSCREENS &lt;a href=&quot;\nhttp://t.imgbox.com/aadztUb3.jpg&quot; rel=&quot;nofollow&quot; target=&quot;_NEW&quot;&gt;\nhttp://t.imgbox.com/aadztUb3.jpg&lt;/a&gt; &lt;a href=&quot;\nhttp://t.imgbox.com/aad0LqFt.jpg&quot; rel=&quot;nofollow&quot; target=&quot;_NEW&quot;&gt;\nhttp://t.imgbox.com/aad0LqFt.jpg&lt;/a&gt; &lt;a href=&quot;\nhttp://t.imgbox.com/aaqCTwpr.jpg&quot; rel=&quot;nofollow&quot; target=&quot;_NEW&quot;&gt;\nhttp://t.imgbox.com/aaqCTwpr.jpg&lt;/a&gt; &lt;a href=&quot;\nhttp://t.imgbox.com/aayYggJv.jpg&quot; rel=&quot;nofollow&quot; target=&quot;_NEW&quot;&gt;\nhttp://t.imgbox.com/aayYggJv.jpg&lt;/a&gt; &lt;a href=&quot;\nhttp://t.imgbox.com/aanXkEWj.jpg&quot; rel=&quot;nofollow&quot; target=&quot;_NEW&quot;&gt;\nhttp://t.imgbox.com/aanXkEWj.jpg&lt;/a&gt; &lt;a href=&quot;\nhttp://t.imgbox.com/aamNgJUD.jpg&quot; rel=&quot;nofollow&quot; target=&quot;_NEW&quot;&gt;\nhttp://t.imgbox.com/aamNgJUD.jpg&lt;/a&gt; &lt;a href=&quot;\nhttp://t.imgbox.com/aanTFFL7.jpg&quot; rel=&quot;nofollow&quot; target=&quot;_NEW&quot;&gt;\nhttp://t.imgbox.com/aanTFFL7.jpg&lt;/a&gt; &lt;a href=&quot;\nhttp://i.imgbox.com/aatdObE5.jpg&quot; rel=&quot;nofollow&quot; target=&quot;_NEW&quot;&gt;\nhttp://i.imgbox.com/aatdObE5.jpg&lt;/a&gt;","torrent":{"xt":"urn:btih:8f5875013bc62f95afb17417c65714eb76fc65ff","amp;dn":"+Carl.2012.VODRip.XviD-XTREME","amp;tr":["udp%3A%2F%2Ftracker.openbittorrent.com%3A80","udp%3A%2F%2Fopen.demonii.com%3A1337","udp%3A%2F%2Ftracker.coppersurfer.tk%3A6969","udp%3A%2F%2Fexodus.desync.com%3A6969"],"infoHash":"8f5875013bc62f95afb17417c65714eb76fc65ff","infoHashBuffer":{"type":"Buffer","data":[143,88,117,1,59,198,47,149,175,177,116,23,198,87,20,235,118,252,101,255]},"announce":[],"urlList":[]}}